<svg width="23" height="46" viewBox="0 0 23 46" fill="none" xmlns="http://www.w3.org/2000/svg">
<path d="M19.9985 2.65379L19.9966 2.64588L19.9948 2.63789C19.6594 1.1833 17.6357 3.8147e-06 16.1356 3.8147e-06H5.93763C4.43785 3.8147e-06 2.9466 1.17612 2.61347 2.62128L2.6114 2.62919L2.60981 2.63718C-0.296147 16.149 -0.297484 29.8453 2.60615 43.3462L2.60774 43.3542L2.60955 43.3623C2.94533 44.8167 4.43836 46 5.93763 46H16.6668C18.1663 46 19.6572 44.8245 19.9907 43.379L19.9927 43.3708L19.9943 43.3628C22.9006 29.8513 22.9016 16.1547 19.9985 2.65379Z" fill="white"/>
<path d="M7.46155 44.8824H15.7755C15.5623 44.8031 15.359 44.6756 15.1912 44.5017C14.5262 43.8131 14.7551 43.4831 14.9493 42.9232C15.1438 42.3633 14.7464 42.1674 14.6773 41.7067C14.6085 41.2465 15.0644 40.3567 15.1604 39.8958C15.2564 39.4348 15.6196 39.2445 15.6196 39.2445L15.6219 39.2451C15.6773 39.0862 15.5976 38.6245 15.3498 37.2133C15.2486 36.6358 14.1921 34.7192 14.1381 34.3762C13.9951 33.4688 14.4021 32.4104 14.2515 32.082C14.1986 31.9495 14.0655 31.6298 14.0533 31.5696C14.0078 31.3466 13.7235 30.7281 13.7235 30.7281L13.5432 30.2257C13.5432 30.2257 13.3523 30.2176 13.208 30.147C13.0086 29.3262 12.0703 26.4457 12.0703 26.4457C11.7027 26.7875 10.799 29.5313 10.5128 30.0761C10.5128 30.0761 10.3701 30.0966 10.2282 30.0649C10.1705 30.1843 9.52376 31.5546 9.33072 32.2383C9.01012 33.374 10.1063 33.5515 8.44869 36.4442C8.20789 36.8647 7.87082 38.7358 7.73206 39.5683L7.86223 39.5873C8.0832 39.7297 8.01145 39.9201 8.01222 40.204C8.01588 41.3233 8.35527 40.9107 8.26997 41.6217C8.16434 42.5035 7.92768 42.2881 7.84215 42.6694C7.76359 43.3942 8.03624 43.4882 7.83404 44.2416C7.76649 44.4937 7.62948 44.7148 7.46155 44.8824Z" fill="#008348"/>
<path d="M10.1207 2.84716C10.1252 2.82832 10.1309 2.80987 10.1359 2.79118C10.1441 2.76035 10.1519 2.72945 10.1612 2.6991C10.1684 2.67562 10.1769 2.6527 10.1848 2.62954C10.1933 2.60463 10.2012 2.57947 10.2104 2.55487C10.2203 2.52876 10.2313 2.5032 10.242 2.47749C10.2507 2.45664 10.2588 2.43556 10.268 2.41496C10.2806 2.38676 10.2943 2.35929 10.3079 2.33166C10.3165 2.31425 10.3246 2.2966 10.3335 2.27943C10.349 2.24981 10.3656 2.22073 10.3822 2.19175C10.3904 2.17745 10.3982 2.16291 10.4067 2.1487C10.4251 2.11787 10.4447 2.0876 10.4645 2.0575C10.472 2.04608 10.4792 2.03442 10.4869 2.02308C10.5086 1.99129 10.5312 1.96015 10.5543 1.9294C10.5609 1.92054 10.5673 1.91151 10.574 1.90265C10.5989 1.87038 10.6247 1.83876 10.651 1.80769C10.6566 1.80106 10.6621 1.79427 10.6677 1.78772C10.6957 1.7553 10.7247 1.72368 10.7543 1.69269C10.7589 1.68798 10.7632 1.68311 10.7677 1.67848C10.7989 1.64629 10.8309 1.61499 10.8638 1.58448C10.8671 1.58137 10.8704 1.57817 10.8738 1.57505C10.908 1.54359 10.943 1.51292 10.9789 1.4833C10.9811 1.48146 10.9833 1.4797 10.9855 1.47787C11.0225 1.44744 11.0605 1.41797 11.0992 1.38962C11.1005 1.38866 11.1018 1.3877 11.103 1.38683C11.1426 1.35791 11.1831 1.33004 11.2244 1.30337C11.2249 1.30305 11.2254 1.30273 11.2259 1.30241C11.2679 1.27534 11.3105 1.24946 11.3541 1.2247C11.3979 1.19995 11.4426 1.17639 11.4879 1.15411C11.513 1.14173 11.5378 1.12879 11.5633 1.11721H5.93751C5.8888 1.11721 5.83989 1.11985 5.79092 1.124C5.78424 1.12456 5.77756 1.12496 5.77088 1.1256C5.72407 1.13007 5.67721 1.13654 5.6304 1.1446C5.62236 1.14596 5.61433 1.1474 5.60629 1.14892C5.55935 1.15754 5.51252 1.16776 5.46581 1.1799C5.45951 1.1815 5.45318 1.18334 5.44685 1.18502C5.39795 1.19819 5.34917 1.21273 5.30077 1.22942C5.30074 1.22942 5.30074 1.22942 5.30074 1.22942C5.30067 1.22942 5.30065 1.22942 5.30062 1.22942C5.25864 1.24387 5.2171 1.26009 5.1757 1.27702C5.16784 1.28021 5.15998 1.28341 5.15219 1.28668C5.11127 1.30401 5.0706 1.3223 5.03039 1.34194C5.02587 1.34418 5.02141 1.34649 5.01687 1.34881C4.97964 1.36726 4.94286 1.38675 4.90639 1.40711C4.89984 1.41078 4.89322 1.4143 4.8867 1.41805C4.84782 1.44017 4.80938 1.46341 4.77149 1.48769C4.76503 1.49176 4.75866 1.49607 4.75227 1.50031C4.71743 1.52299 4.68307 1.54647 4.64928 1.57082C4.64482 1.57402 4.6403 1.57705 4.63591 1.58033C4.59951 1.60684 4.56391 1.63439 4.52891 1.66274C4.52185 1.66849 4.51488 1.67424 4.50788 1.68007C4.47368 1.70826 4.44001 1.73709 4.40734 1.76696C4.40638 1.76784 4.40539 1.76872 4.40438 1.76952C4.37109 1.80003 4.3389 1.83157 4.30727 1.86359C4.30049 1.87046 4.29375 1.87733 4.28707 1.88428C4.25604 1.91646 4.22569 1.94912 4.19658 1.98259C4.19432 1.98522 4.19222 1.98794 4.18993 1.99049C4.16272 2.02204 4.13657 2.0543 4.11115 2.08688C4.10542 2.09423 4.09969 2.10158 4.09406 2.10893C4.06785 2.14343 4.04252 2.17849 4.0184 2.21403C4.0143 2.22002 4.01045 2.22624 4.00644 2.23231C3.98515 2.26434 3.96482 2.29676 3.94541 2.32958C3.94134 2.33645 3.93707 2.34332 3.93303 2.35027C3.91194 2.38684 3.89209 2.4239 3.87334 2.46128C3.86937 2.46926 3.86561 2.47733 3.86173 2.48531C3.84502 2.51981 3.82934 2.55463 3.8148 2.58969C3.81279 2.59456 3.8105 2.59943 3.80853 2.60431C3.79301 2.6428 3.77917 2.68161 3.7664 2.72058C3.76348 2.72961 3.76068 2.73863 3.75791 2.74766C3.74559 2.78743 3.73424 2.82736 3.72498 2.86761C0.851604 16.2265 0.851604 29.7734 3.72107 43.1157C3.93453 44.0413 4.93984 44.8543 5.8894 44.8812C5.80858 44.7634 5.74453 44.6017 5.6921 44.3773C5.5611 43.8161 5.64173 43.2153 5.79175 42.7954C5.88278 42.5405 6.01896 42.1418 6.08574 41.7632C6.14708 41.4148 6.15046 41.0877 6.14967 40.88C6.14782 40.4111 6.15933 39.8248 6.26837 39.7225C6.37767 39.6205 6.44684 39.6006 6.44684 39.6006L6.49873 39.5995L6.64299 37.8113C6.64299 37.8113 6.53867 35.3742 6.70902 34.093C6.80787 33.3494 7.41651 32.3217 7.41651 32.3217L7.58766 30.7489C7.66908 30.0046 7.63853 29.3947 7.63853 29.3947C7.49688 29.3049 7.42096 29.2377 7.42096 29.2377C7.42096 29.2377 7.76978 26.8299 8.54718 24.3355C8.73842 23.7219 9.30949 22.4352 9.38858 22.2025C9.4728 21.8789 9.70682 21.372 9.83364 21.0873C10.2046 20.2545 10.4355 20.2222 10.4355 20.2222C10.5615 19.9033 10.4913 19.6219 10.5753 19.3853C10.4793 19.3185 10.37 19.0669 10.3366 18.3471C10.3118 17.8134 10.0932 16.2154 10.0069 15.5015C9.90198 14.6363 9.83234 13.6726 9.92649 13.6211C9.91631 13.5498 9.807 13.3554 9.81979 13.1528L9.7877 13.0428C9.71594 12.778 9.84822 12.3133 9.41041 12.0373C9.30688 11.9887 9.19261 11.9455 9.06375 11.9117C8.21745 11.6907 7.41731 11.0195 7.10266 10.6845C6.0714 9.58536 5.56918 9.51277 5.27051 8.90886C5.06045 8.48368 4.94333 8.25552 4.9475 8.00563C4.9475 8.00563 4.97337 7.90077 5.00936 7.86523C5.04197 7.82458 5.07636 7.78282 5.12724 7.75934C5.57078 7.55521 6.00566 6.86433 7.21956 6.21363C8.09482 5.74421 8.65941 5.52578 9.12272 5.27031C9.35176 5.10683 9.54432 4.96148 9.69142 4.84872C9.81376 4.75512 10.0321 4.53567 10.1644 4.46603C10.2028 4.45205 10.2375 4.44335 10.2698 4.43616C10.0802 4.01026 9.99768 3.52431 10.0892 2.99866C10.0981 2.94763 10.1087 2.89708 10.1207 2.84716Z" fill="#1D428A"/>
<path d="M18.8833 2.88418C18.6659 1.94286 17.6299 1.11718 16.6665 1.11718H16.1354H13.8147C13.8478 1.12125 13.8779 1.12636 13.9063 1.13227C13.9079 1.13267 13.9096 1.13291 13.9112 1.13323C13.9398 1.13938 13.9664 1.14632 13.9915 1.15407C14.0358 1.16773 14.0757 1.18362 14.1137 1.20111C14.1138 1.20111 14.1138 1.20111 14.1139 1.20111C14.167 1.22547 14.2172 1.25254 14.273 1.28001C14.2734 1.28025 14.2738 1.28049 14.2743 1.28073C14.2835 1.28528 14.2931 1.28983 14.3026 1.29439C14.3089 1.29734 14.3151 1.3003 14.3216 1.30325C14.3293 1.30685 14.3372 1.31036 14.3451 1.31395C14.3538 1.31771 14.3625 1.32146 14.3715 1.32521C14.3787 1.32833 14.3858 1.33136 14.3934 1.3344C14.4043 1.33879 14.4157 1.34302 14.4271 1.34742C14.4336 1.34981 14.4398 1.35229 14.4464 1.35468C14.4651 1.36131 14.4843 1.36794 14.5048 1.37441C14.5495 1.38846 14.5962 1.39733 14.6377 1.41833C14.7561 1.47799 14.808 1.61863 14.914 1.69793C14.9333 1.71222 14.9547 1.72476 14.9719 1.74193C15.0099 1.78002 15.0228 1.83529 15.035 1.8872C15.0901 2.11592 15.1594 2.30926 15.2419 2.52976C15.2693 2.60371 15.31 2.71032 15.3625 2.77014C15.3903 2.80216 15.4448 2.88219 15.4511 2.95278C15.4584 3.04079 15.4018 3.18558 15.3569 3.2168C15.4864 3.57618 15.7661 4.30875 15.7661 4.30875C15.7661 4.30875 16.0318 4.87352 16.2123 5.23673C16.7397 6.29976 16.8695 6.74691 16.846 7.95672C16.8276 8.91489 17.4839 9.12086 17.4163 10.4404C17.4083 10.6013 17.9585 11.4316 17.6194 12.4678C17.4793 12.8964 17.293 13.3572 17.1798 13.6278C17.1635 14.1406 17.0571 14.5831 16.9478 14.9742C16.9582 14.9871 16.9616 14.9932 16.9715 15.0134C16.9966 15.2786 16.8263 16.0912 16.7643 16.3043C16.702 16.5202 16.4565 17.2057 16.3632 17.5224C16.322 17.6615 16.1714 18.1022 16.0415 18.4923C15.929 19.0189 15.8453 19.415 15.72 19.6321C15.7031 19.661 15.5604 19.8495 15.5635 19.8828C15.5696 19.9495 15.6236 20.3327 15.6953 20.6263C15.9473 20.9694 16.42 22.0042 16.5317 23.2668C16.6376 24.4608 16.9428 25.2653 16.6825 27.7822C16.6509 28.6058 16.6382 29.2647 16.6027 29.4775C16.4816 29.5972 16.2906 29.6451 16.2906 29.6451L16.2598 30.0034L16.2632 30.1889L16.2565 31.1406C16.3895 31.8617 16.9168 33.1971 16.9011 33.9814C16.8904 34.5125 16.9971 39.1992 17.0031 39.4618L17.0054 39.4621C17.0054 39.4621 17.3707 39.7901 17.2408 40.1195C17.1111 40.4487 17.3793 41.073 17.1555 42.1924C16.9319 43.3116 17.4607 43.3757 17.2685 44.2648C17.2036 44.5647 17.0215 44.7672 16.7832 44.8779C17.7121 44.8153 18.6746 44.0198 18.8793 43.132C21.7524 29.7734 21.7524 16.2265 18.8833 2.88418Z" fill="#C8102E"/>
<path d="M14.6414 5.53149L14.5757 5.10176C14.1656 5.55704 13.5904 5.8681 12.9308 5.94149C12.785 6.0438 12.4837 6.10289 12.2514 6.10801C11.8009 6.11799 11.5062 6.06528 11.3895 6.05482C11.28 6.04483 11.1928 6.02255 11.1183 5.99572C10.9625 5.94764 10.8626 5.87577 10.7561 5.8364C10.6445 5.80565 10.4243 5.73633 10.2133 5.84654C9.91766 6.00051 8.92809 7.08439 8.51068 7.62018C8.21854 7.99488 7.5916 8.38421 7.33411 8.5738C7.38466 8.57891 7.43417 8.58514 7.48291 8.59217C7.49898 8.59448 7.51448 8.59735 7.53038 8.59991C7.56265 8.6051 7.59491 8.61021 7.62642 8.61612C7.64471 8.61964 7.66246 8.62355 7.6805 8.62722C7.70885 8.63313 7.73713 8.63896 7.76482 8.64543C7.78327 8.64974 7.80128 8.65438 7.81942 8.65893C7.84589 8.66564 7.8723 8.67234 7.8982 8.67961C7.91611 8.68456 7.9337 8.68983 7.9513 8.69503C7.97666 8.70261 8.00186 8.71028 8.02661 8.71834C8.0436 8.72386 8.06044 8.72952 8.07717 8.73519C8.10186 8.74374 8.1263 8.75245 8.15039 8.76139C8.16623 8.76722 8.18201 8.77321 8.1976 8.77928C8.22197 8.78878 8.24593 8.79853 8.26963 8.80851C8.28402 8.8145 8.29849 8.82049 8.31266 8.82671C8.33738 8.8375 8.3615 8.8486 8.38545 8.85978C8.39783 8.86561 8.41033 8.87128 8.42249 8.87719C8.4488 8.88989 8.47445 8.90299 8.49987 8.91624C8.50893 8.92095 8.51829 8.9255 8.52723 8.9303C8.5593 8.94739 8.59055 8.96479 8.62117 8.98244C8.62313 8.98356 8.62517 8.9846 8.62704 8.9858C8.69399 9.02461 8.75736 9.06494 8.81739 9.10599C8.82139 9.10871 8.82521 9.1115 8.82921 9.1143C8.85446 9.13171 8.8793 9.14928 8.90333 9.16701C8.90968 9.17164 8.91579 9.17635 8.92198 9.18098C8.94332 9.19695 8.96425 9.21285 8.98462 9.2289C8.99154 9.23433 8.99822 9.23976 9.00498 9.24519C9.02429 9.2606 9.04318 9.27609 9.06159 9.29151C9.06827 9.29718 9.07479 9.30277 9.08138 9.30836C9.0993 9.32369 9.11682 9.33895 9.13384 9.3542C9.14019 9.35979 9.14638 9.36546 9.15257 9.37105C9.16952 9.38646 9.18613 9.40188 9.20226 9.41721C9.20764 9.42232 9.21309 9.42743 9.21839 9.43254C9.23484 9.44844 9.25081 9.46425 9.26636 9.4799C9.27084 9.48437 9.27532 9.48877 9.27964 9.49324C9.29617 9.51009 9.31214 9.5267 9.32753 9.54315C9.33047 9.54619 9.3334 9.54922 9.33617 9.55225C9.35368 9.5711 9.37054 9.58963 9.38667 9.60792C9.38724 9.60848 9.38789 9.60912 9.38838 9.60976C9.43961 9.66765 9.48392 9.72228 9.52164 9.77163C9.52318 9.77371 9.52465 9.77562 9.5262 9.7777C9.53662 9.79144 9.54672 9.80494 9.55617 9.81787C9.55878 9.82147 9.56122 9.8249 9.56375 9.82841C9.57165 9.83943 9.5793 9.85014 9.58647 9.86028C9.5894 9.86459 9.59217 9.86858 9.59502 9.87266C9.60113 9.88152 9.60708 9.89015 9.61254 9.89837C9.61555 9.90293 9.61848 9.90724 9.62125 9.91147C9.6259 9.91858 9.63038 9.92536 9.63453 9.93175C9.63746 9.93631 9.64031 9.94086 9.643 9.94509C9.64626 9.95028 9.64935 9.95508 9.65229 9.95979C9.65514 9.9645 9.65799 9.96913 9.66051 9.97328C9.66239 9.97632 9.66402 9.97911 9.66573 9.98183C9.66866 9.98678 9.67159 9.99173 9.67403 9.9958C9.68405 10.0131 9.68935 10.023 9.68935 10.023C9.68935 10.023 9.70376 10.023 9.72885 10.023C9.74148 10.023 9.75712 10.023 9.7752 10.0231C9.77593 10.0232 9.77675 10.0232 9.77748 10.0232C9.81242 10.0234 9.85722 10.024 9.90878 10.025C9.91253 10.025 9.91611 10.0251 9.91994 10.0252C9.94356 10.0257 9.96889 10.0263 9.99512 10.027C10.0012 10.0272 10.0073 10.0273 10.0134 10.0275C10.0398 10.0283 10.0675 10.0292 10.096 10.0302C10.103 10.0305 10.11 10.0308 10.117 10.031C10.1465 10.0321 10.1767 10.0333 10.2078 10.0348C10.2135 10.0351 10.2194 10.0354 10.2251 10.0357C10.256 10.0372 10.2875 10.0388 10.3195 10.0407C10.3231 10.0409 10.3267 10.0411 10.3304 10.0412C10.3639 10.0432 10.3979 10.0456 10.4322 10.048C10.4396 10.0485 10.4469 10.049 10.4544 10.0495C10.4877 10.052 10.5214 10.0547 10.555 10.0576C10.5631 10.0583 10.5712 10.0591 10.5792 10.0597C10.6132 10.0628 10.6472 10.0661 10.6812 10.0697C10.6882 10.0704 10.6951 10.0712 10.7022 10.072C10.7376 10.0759 10.7728 10.0799 10.8076 10.0844C10.811 10.0848 10.8144 10.0854 10.8178 10.0859C10.8519 10.0904 10.8856 10.0952 10.9186 10.1003C10.9228 10.1009 10.9271 10.1015 10.9313 10.1023C10.9647 10.1075 10.9973 10.1133 11.0292 10.1193C11.0351 10.1205 11.041 10.1216 11.0468 10.1227C11.0779 10.1288 11.108 10.1352 11.1371 10.1421C11.1425 10.1434 11.1478 10.1447 11.1531 10.146C11.1824 10.1531 11.2106 10.1607 11.2372 10.1686C11.2409 10.1697 11.2442 10.1709 11.2478 10.172C11.2755 10.1805 11.3021 10.1895 11.3264 10.1991C11.6577 10.3295 12.0065 10.597 12.1302 10.7182L12.3058 10.8597C12.3634 10.8542 12.4204 10.8472 12.4746 10.8398C12.5122 10.7398 12.57 10.4485 12.5518 10.2804C12.352 10.2208 12.3152 9.59354 12.3478 9.19176C12.3663 8.96695 12.5101 8.66564 12.6105 8.58067C12.7112 8.49577 12.551 8.13512 12.6655 8.00031C12.7731 7.87341 13.2896 6.94463 14.3657 7.12703C14.5481 7.15802 14.7109 7.2176 14.8579 7.29514C14.7482 6.89144 14.6422 6.30399 14.6414 5.53149Z" fill="#FDB927"/>
<path d="M5.98835 31.9918L4.55456 32.1573V26.2499H3.65918V32.2442V32.8568V32.8571L5.98835 32.8568V31.9918Z" fill="white"/>
<path d="M5.12883 13.6759C5.12883 14.3256 4.51551 14.6246 4.51551 14.6246V12.4936H5.12883V13.6759ZM5.12883 17.5388H4.51551V15.4078C4.51551 15.4078 5.12883 15.7068 5.12883 16.3565V17.5388ZM5.2716 15.0162C6.06751 14.6243 6.03413 13.9821 6.03413 13.6669V11.7125H3.60999V18.3199H6.03413V16.3654C6.03413 16.0501 6.06751 15.4078 5.2716 15.0162Z" fill="white"/>
<path d="M4.52047 24.0867L4.82808 19.7639L5.07486 24.0246L4.52047 24.0867ZM5.47401 18.982H4.18289L3.53174 25.588L4.44614 25.5874L4.47195 24.9298L5.11661 24.6594L5.16281 25.588H6.11501L5.47401 18.982Z" fill="white"/>
</svg>
