<svg width="132" height="46" viewBox="0 0 132 46" fill="none" xmlns="http://www.w3.org/2000/svg">
<rect width="40" height="44" fill="#E1FE54"/>
<path d="M21.824 20.584L31.424 33H24.256L16.768 23.24L16.256 23.656V33H10.304V8.872H16.256V19.912L23.904 8.872H30.688L21.824 20.584Z" fill="#1F1C1C"/>
<path d="M59.104 23.344H46.528C46.528 24.2613 46.8267 25.104 47.424 25.872C48.0213 26.6187 48.864 26.992 49.952 26.992C50.6133 26.992 51.2 26.8213 51.712 26.48C52.2453 26.1173 52.64 25.648 52.896 25.072L58.24 25.936C57.536 27.344 56.416 28.432 54.88 29.2C53.3653 29.968 51.7547 30.352 50.048 30.352C47.4453 30.352 45.2373 29.616 43.424 28.144C41.6107 26.6507 40.704 24.624 40.704 22.064C40.704 19.5467 41.568 17.488 43.296 15.888C45.0453 14.288 47.1893 13.488 49.728 13.488C52.3947 13.488 54.624 14.3093 56.416 15.952C58.208 17.5733 59.104 19.696 59.104 22.32V23.344ZM46.688 19.888H53.28C53.216 19.1627 52.8533 18.5227 52.192 17.968C51.552 17.392 50.784 17.104 49.888 17.104C48.992 17.104 48.2453 17.3813 47.648 17.936C47.072 18.4907 46.752 19.1413 46.688 19.888ZM78.9165 23.344H66.3405C66.3405 24.2613 66.6392 25.104 67.2365 25.872C67.8338 26.6187 68.6765 26.992 69.7645 26.992C70.4258 26.992 71.0125 26.8213 71.5245 26.48C72.0578 26.1173 72.4525 25.648 72.7085 25.072L78.0525 25.936C77.3485 27.344 76.2285 28.432 74.6925 29.2C73.1778 29.968 71.5672 30.352 69.8605 30.352C67.2578 30.352 65.0498 29.616 63.2365 28.144C61.4232 26.6507 60.5165 24.624 60.5165 22.064C60.5165 19.5467 61.3805 17.488 63.1085 15.888C64.8578 14.288 67.0018 13.488 69.5405 13.488C72.2072 13.488 74.4365 14.3093 76.2285 15.952C78.0205 17.5733 78.9165 19.696 78.9165 22.32V23.344ZM66.5005 19.888H73.0925C73.0285 19.1627 72.6658 18.5227 72.0045 17.968C71.3645 17.392 70.5965 17.104 69.7005 17.104C68.8045 17.104 68.0578 17.3813 67.4605 17.936C66.8845 18.4907 66.5645 19.1413 66.5005 19.888ZM93.449 27.024C92.7663 28.048 91.913 28.8587 90.889 29.456C89.865 30.0533 88.7557 30.352 87.561 30.352C85.449 30.352 83.721 29.488 82.377 27.76C81.033 26.032 80.361 24.08 80.361 21.904C80.361 19.664 81.0223 17.7013 82.345 16.016C83.6677 14.3307 85.417 13.488 87.593 13.488C88.7237 13.488 89.7903 13.776 90.793 14.352C91.7957 14.928 92.5637 15.6853 93.097 16.624H93.129V3.952H98.953V30H93.481V27.024H93.449ZM92.265 19.248C91.561 18.5013 90.7183 18.128 89.737 18.128C88.7557 18.128 87.913 18.5013 87.209 19.248C86.5263 19.9733 86.185 20.8587 86.185 21.904C86.185 22.9707 86.5263 23.8773 87.209 24.624C87.913 25.3493 88.7557 25.712 89.737 25.712C90.7397 25.712 91.5823 25.3387 92.265 24.592C92.969 23.8453 93.321 22.9493 93.321 21.904C93.321 20.8587 92.969 19.9733 92.265 19.248ZM110.861 13.488C113.527 13.488 115.757 14.256 117.549 15.792C119.341 17.3067 120.237 19.3547 120.237 21.936C120.237 24.5173 119.341 26.5653 117.549 28.08C115.757 29.5947 113.527 30.352 110.861 30.352C108.215 30.352 105.997 29.5947 104.205 28.08C102.413 26.5653 101.517 24.5173 101.517 21.936C101.517 19.3547 102.413 17.3067 104.205 15.792C105.997 14.256 108.215 13.488 110.861 13.488ZM113.421 19.216C112.759 18.4907 111.906 18.128 110.861 18.128C109.815 18.128 108.962 18.4907 108.301 19.216C107.661 19.9413 107.341 20.848 107.341 21.936C107.341 23.0027 107.661 23.8987 108.301 24.624C108.962 25.3493 109.815 25.712 110.861 25.712C111.906 25.712 112.759 25.3493 113.421 24.624C114.082 23.8987 114.413 23.0027 114.413 21.936C114.413 20.848 114.082 19.9413 113.421 19.216ZM126.409 30.352C125.47 30.352 124.638 30.0747 123.913 29.52C123.209 28.9653 122.857 28.24 122.857 27.344C122.857 26.4267 123.209 25.6907 123.913 25.136C124.638 24.5813 125.47 24.304 126.409 24.304C127.326 24.304 128.137 24.5813 128.841 25.136C129.545 25.6907 129.897 26.4267 129.897 27.344C129.897 28.24 129.545 28.9653 128.841 29.52C128.137 30.0747 127.326 30.352 126.409 30.352Z" fill="white"/>
</svg>
